<svg width="120" height="120" viewBox="0 0 120 120" fill="none" xmlns="http://www.w3.org/2000/svg">
  <defs>
    <linearGradient id="appGradient" x1="0%" y1="0%" x2="100%" y2="100%">
      <stop offset="0%" style="stop-color:#f97316;stop-opacity:1" />
      <stop offset="50%" style="stop-color:#ec4899;stop-opacity:1" />
      <stop offset="100%" style="stop-color:#8b5cf6;stop-opacity:1" />
    </linearGradient>
    <filter id="shadow" x="-50%" y="-50%" width="200%" height="200%">
      <feDropShadow dx="0" dy="4" stdDeviation="8" flood-color="#000000" flood-opacity="0.25"/>
    </filter>
  </defs>
  
  <!-- App icon background -->
  <rect width="120" height="120" rx="26" fill="url(#appGradient)" filter="url(#shadow)"/>
  
  <!-- Cat silhouette -->
  <g transform="translate(60, 60)">
    <!-- Cat body -->
    <ellipse cx="0" cy="15" rx="25" ry="20" fill="white" opacity="0.9"/>
    
    <!-- Cat head -->
    <circle cx="0" cy="-10" r="18" fill="white"/>
    
    <!-- Cat ears -->
    <polygon points="-12,-22 -8,-30 -4,-22" fill="white"/>
    <polygon points="4,-22 8,-30 12,-22" fill="white"/>
    <polygon points="-10,-21 -8,-26 -6,-21" fill="#fbbf24"/>
    <polygon points="6,-21 8,-26 10,-21" fill="#fbbf24"/>
    
    <!-- Cat face -->
    <circle cx="-5" cy="-12" r="1.5" fill="#1f2937"/>
    <circle cx="5" cy="-12" r="1.5" fill="#1f2937"/>
    <polygon points="0,-6 -2,-3 2,-3" fill="#ec4899"/>
    
    <!-- Cat whiskers -->
    <line x1="-15" y1="-10" x2="-8" y2="-11" stroke="#1f2937" stroke-width="1" stroke-linecap="round"/>
    <line x1="-15" y1="-7" x2="-8" y2="-7" stroke="#1f2937" stroke-width="1" stroke-linecap="round"/>
    <line x1="8" y1="-11" x2="15" y2="-10" stroke="#1f2937" stroke-width="1" stroke-linecap="round"/>
    <line x1="8" y1="-7" x2="15" y2="-7" stroke="#1f2937" stroke-width="1" stroke-linecap="round"/>
    
    <!-- Cat tail -->
    <path d="M 25 15 Q 35 5 30 -5 Q 28 -8 25 -5 Q 32 2 22 12" fill="white"/>
  </g>
  
  <!-- Social icons overlay -->
  <g opacity="0.8">
    <!-- Heart icon -->
    <path d="M 25 35 C 25 32, 27 30, 30 30 C 33 30, 35 32, 35 35 C 35 40, 30 45, 30 45 C 30 45, 25 40, 25 35 Z" fill="#ec4899"/>
    
    <!-- Message bubble -->
    <circle cx="90" cy="85" r="8" fill="white" opacity="0.9"/>
    <polygon points="85,90 90,95 95,90" fill="white" opacity="0.9"/>
  </g>
</svg>
